<?xml version="1.0" standalone="no"?><!DOCTYPE svg PUBLIC "-//W3C//DTD SVG 1.1//EN" "http://www.w3.org/Graphics/SVG/1.1/DTD/svg11.dtd"><svg t="1675307479734" class="icon" viewBox="0 0 1024 1024" version="1.1" xmlns="http://www.w3.org/2000/svg" p-id="5641" xmlns:xlink="http://www.w3.org/1999/xlink" width="32" height="32"><path d="M519.68 43.52L112 278.4v471.04l407.68 234.88 407.68-234.88V278.4L519.68 43.52z" fill="#FFFFFF" p-id="5642"></path><path d="M519.68 1016.32a26.88 26.88 0 0 1-15.36-4.48l-407.68-235.52a30.08 30.08 0 0 1-16-26.88V278.4a30.08 30.08 0 0 1 16-26.88L504.32 16a30.72 30.72 0 0 1 31.36 0l407.68 235.52a30.72 30.72 0 0 1 15.36 26.88v471.04a30.72 30.72 0 0 1-15.36 26.88l-407.68 235.52a28.8 28.8 0 0 1-16 4.48z m-375.68-285.44l375.68 217.6 376.32-217.6V296.96L519.68 80 144 296.96z" fill="#323333" p-id="5643"></path><path d="M112 278.4l407.68 231.04" fill="#FFFFFF" p-id="5644"></path><path d="M519.68 540.8a28.16 28.16 0 0 1-15.36-4.48l-407.68-230.4a31.36 31.36 0 0 1-12.16-42.88 32.64 32.64 0 0 1 43.52-12.16l407.04 231.04a31.36 31.36 0 0 1-15.36 58.88z" fill="#323333" p-id="5645"></path><path d="M916.48 283.52l-407.68 230.4" fill="#FFFFFF" p-id="5646"></path><path d="M512 545.28a31.36 31.36 0 0 1-15.36-58.88L901.12 256a31.36 31.36 0 0 1 42.88 12.16 32 32 0 0 1-12.16 42.88l-407.68 230.4a32 32 0 0 1-12.16 3.84z" fill="#323333" p-id="5647"></path><path d="M519.68 1000.96a31.36 31.36 0 0 1-31.36-31.36V501.12a31.36 31.36 0 1 1 64 0v468.48a31.36 31.36 0 0 1-32.64 31.36z" fill="#323333" p-id="5648"></path></svg>